<?xml version="1.0" ?><svg data-name="Layer 1" height="64" id="Layer_1" viewBox="0 0 64 64" width="64" xmlns="http://www.w3.org/2000/svg"><defs><style>.cls-1{fill:#1d1d1b;}</style></defs><title/><g id="earth"><path class="cls-1" d="M35.89,18a26.37,26.37,0,0,0-8-1.66,56,56,0,0,0-6.41,1.06c-.59,0-.78-1.31-.59-1.69s.13-.8-.41-.72S19,16.12,18.77,16.68s1,1.88,2.31,2.69,4.16,1,4.34,1.09.41,1.28.5,1.69S26.93,23,29,24s5,2.16,5.28,2a29.09,29.09,0,0,0,2.75-5.59C37,20,36.64,18.37,35.89,18Zm-.69,2.16c-.09.78-1.28,4-1.72,3.84a42.9,42.9,0,0,1-5.31-2.19c-.22-.31-.28-1.87-1.22-2.16s-2.87-.87-3.53-1.12-.5-.5-.34-.5,1.28-.12,1.28-.12a20.66,20.66,0,0,1,7.25.31C34.8,18.81,35.3,19.34,35.21,20.12Zm19-.22c-2.28-4.25-5.28-6.72-10.69-9.31S34.18,7,29.93,7.21a26.51,26.51,0,0,0-11.25,3.53A23.64,23.64,0,0,0,8.83,22.06c-1.28,3.59-2.72,7.56-1,15.22s6.5,13.19,13.25,16.91S35.68,57,41.18,55.62s9.22-4,11.44-7.87,2.59-9.41,3.84-14.94S56.46,24.15,54.18,19.9Zm-6.59-4.69c.21-.07,2.94,1.06,4.81,4.62s2.47,7.94,2.25,8.34-.91.44-1.53.25S50,26.87,49.46,26.87s-1.41.47-1.78,0S46.18,25,45.05,25s-1.37.19-1.56-.06-.81-5.53.38-6.5,2.22-1.59,2.69-2S47.3,15.31,47.58,15.21Zm-27-3.91a22.86,22.86,0,0,1,7.69-2.59c4-.47,10.47,1.31,11.16,1.62s1.25.5,1,.69-2.53,2.19-3.34,2.31-3.62-.56-5.75-.47-3.56.5-4.59.5-2.5-1.12-3.5-1.22S20.08,11.56,20.55,11.31ZM9.49,26.53c1.38-5.69,4-8.72,4.22-8.69s5.41,3,7.5,4,2.22,1,2.38,1.44a10.33,10.33,0,0,1-.19,3.34c-.19.09-3.94-.09-5,0S17,28.21,17.08,28.81s.13.88-.12,1.06-3.59,1.09-3.78,2,2.38,5.38,2,5.5-4.56-.16-5.56-1.19A17.7,17.7,0,0,1,9.49,26.53Zm5.06,19.75c-3.19-4.12-4.12-7.69-4-7.87.19-.37,2.56.25,3.69.69s1.5,1,1.53,1.88-.12,4.66.66,5.34a10.88,10.88,0,0,1,3.06,3.28,7.31,7.31,0,0,1,1,2.19A20,20,0,0,1,14.55,46.28Zm14.53,8.25a30.39,30.39,0,0,1-3.59-.91c-1.25-.47-2.34-.72-2.34-.81S22,49.06,20.36,47.46A13,13,0,0,1,18,44.81a32.35,32.35,0,0,1-.34-3.72c0-.84-.37-2.87-.19-2.87a12.88,12.88,0,0,0,4.84.91c3.31.06,6.56-.31,6.91.09s.28,1.78-.44,3.09a21.44,21.44,0,0,0-1.19,2.59,25.85,25.85,0,0,0-3.16-2.5.58.58,0,0,0-.34.69c.13.28,3,2.22,3.13,2.47a9.48,9.48,0,0,1-.09,1.75,26.48,26.48,0,0,0-3-2.37c-.37-.06-.62.84-.5,1s3.53,2.5,4,2.91a6.24,6.24,0,0,1,.84,2.53c-.09,0-3.91-3.09-4.12-3.12s-.28,1-.28,1,4.5,3.19,4.66,3.44A6.8,6.8,0,0,1,29.08,54.53ZM52.14,44.43a16.07,16.07,0,0,1-5.53,7.06c-1.16.66-2.34.91-2.44.72a22.18,22.18,0,0,1-2.28-5.94c-.69-3.22-.87-4.72-1.94-5s-3.69-.91-4.19-1.53a4,4,0,0,1-.56-1.87s.28-3.87.28-4.72,0-2.16.22-2.16c.37,0,5.72-.41,6.78.63s1.94,2.16,2.84,2.13,9.19-.75,9.19-.44S53.58,40.78,52.14,44.43Zm2.63-13.19c-.16.09-5.44.72-6.69.78s-1,.34-1.69,0S44.61,30.4,43,30.15s-6.53-.56-7.5-.56-1.25,0-1.34.47.09,5.19-.41,6.72-.16,4.06,1.66,4.78,3.69,1.09,3.94,1.75,1.13,5,1.91,6.47,1.88,3.16,1.5,3.47a20.48,20.48,0,0,1-6,1.53,23.29,23.29,0,0,1-5.78,0s-1.16-6-1.47-6.53a4.72,4.72,0,0,1-.41-2.34c.13-.41,2.34-4.87,2.06-6s-.72-2.28-1.75-2.56-2.75,0-5.53,0a28.45,28.45,0,0,1-5.34-.44c-.56-.12-.87,0-1.12-.28s-2.28-4-2-4.34,3.13-1.16,3.25-1.81-.06-2.25.66-2.31,3.88.38,4.88-.16,1.13-1.75,1.16-2.81-.37-3.41-.84-3.84-5-1.81-6.72-2.72S14.61,17,14.8,16.4a12.31,12.31,0,0,1,3.78-3.53,5.77,5.77,0,0,1,4.16.34c1.63.88,1.44,1.25,3.66,1.22s3.28-.41,3.94-.25,3.41,1.34,5.84.88a10.37,10.37,0,0,0,4.28-1.75c.72-.47,1.16-1.25,1.59-1.19s4.41,2.41,4.34,2.66a4.45,4.45,0,0,1-1.72,1.5,7.42,7.42,0,0,0-2.78,3.47c-.5,1.47-.78,5.88-.12,6.31s2.34-.19,3,.31.81,2.06,1.91,2.19,1.56-.69,2.56,0,1,1.22,2.56,1.25,3-.31,3.09,0A2.58,2.58,0,0,1,54.77,31.24ZM13.46,20.68c-.22-.06-.44.09-.94.84a19,19,0,0,0-1.16,3.66c.13.22.69.22,1.06.16s.13-.06.41-1,1.34-3,1.41-3.16S13.68,20.74,13.46,20.68Zm29.22-5.59c-.16-.22-2.53.37-2.69.5s.06.91.25,1a12,12,0,0,0,2.63-.94C43,15.53,42.83,15.31,42.68,15.09Zm-4.78,8.41a6.31,6.31,0,0,0,1.53,2.22c.34.16.19-.12.34-.31s-1.16-2.31-1.31-2.47C38.46,22.93,38,23.24,37.89,23.49Zm-.87.88c-.06,0-.47.47-.47.63a8.1,8.1,0,0,0,1.88,1.84c.34.09.28-.19.31-.37A11.86,11.86,0,0,0,37,24.37Zm14.81-3.5a7.2,7.2,0,0,0-2.5-1.22s-.37.59-.28.69,2.38,1,2.63,1.13S51.86,21.06,51.83,20.87Zm1.25,4.22c.41.06.09-.19.06-.53s-4-2.63-4-2.53-.44.69-.28.91A30,30,0,0,0,53.08,25.09Zm.38,2.13c.41,0,.19-.28.13-.56A25.91,25.91,0,0,0,48.74,24a1,1,0,0,0-.22.81A40.34,40.34,0,0,0,53.46,27.21Zm-3.78,8.31c-.16.06-.44.19-.5.34a22.69,22.69,0,0,0,3.13,2.72c.25.09.19,0,.28-.28A13.19,13.19,0,0,0,49.68,35.53Zm-1.56,1.91a5.08,5.08,0,0,0-.34.63,39.76,39.76,0,0,0,3.44,3c.13,0,.22-.19.25-.44A28.82,28.82,0,0,0,48.11,37.43Zm-1,2c-.06,0-.44.5-.44.5a40.48,40.48,0,0,0,3.53,3.19c.31,0,.19-.12.25-.37A23.51,23.51,0,0,0,47.11,39.46Zm-.78,1.66a.86.86,0,0,0-.66.5,47.48,47.48,0,0,0,3.84,3.09c.13.09.22-.06.22-.31A28.92,28.92,0,0,0,46.33,41.12Zm-.62,3c-.06,0-.41.38-.37.56a33.89,33.89,0,0,0,3.19,2.5c.09,0,.25-.12.25-.34A16.06,16.06,0,0,0,45.71,44.12ZM45,45.93c-.19,0-.41.38-.47.53a22.57,22.57,0,0,0,3.13,2.69c.25.09.16,0,.38-.28S45.19,45.93,45,45.93ZM36.46,44c0-.28-1.19-.73-1.28-.59s-.41.38-.41.5a5.2,5.2,0,0,0,1.53.44C36.46,44.37,36.43,44.31,36.46,44Zm-3.19,4c.13.09,0,0,.69,0s1,.47,1.63.81a2.06,2.06,0,0,0,1.5.16c.25-.06.31-.22.41-.37a.36.36,0,0,0-.16-.47c-.16-.09-.62.28-1.25.19s-1.31-.87-1.78-1.09a1.45,1.45,0,0,0-1.16,0C32.89,47.49,33.14,48,33.27,48.06Zm-5.69-5.5c.19.06.31-.22.38-.44s-1.75-1.81-2-2c0,0-.5.38-.53.59A10.2,10.2,0,0,0,27.58,42.56ZM23.49,30.81a44.92,44.92,0,0,0,2.84,4.34c.13.13.25-.09.47-.31s-2.47-4.36-2.59-4.41A1.34,1.34,0,0,0,23.49,30.81ZM25.24,30a17.17,17.17,0,0,0,1.91,2.81c.28.19.16-.09.25-.28A12.36,12.36,0,0,0,26,29.84C25.83,29.65,25.22,29.91,25.24,30ZM32,28.71c-.28,0-1.2.88-1.28,1a1.68,1.68,0,0,0,.53,1c.25.16,1.53-1.5,1.66-1.75S32.3,28.71,32,28.71Z"/></g></svg>