<?xml version="1.0" encoding="utf-8"?>
<!-- Generator: Adobe Illustrator 19.0.0, SVG Export Plug-In . SVG Version: 6.00 Build 0)  -->
<svg version="1.1" id="Layer_1" xmlns="http://www.w3.org/2000/svg" xmlns:xlink="http://www.w3.org/1999/xlink" x="0px" y="0px"
	 viewBox="0 0 500 500" style="enable-background:new 0 0 500 500;" xml:space="preserve">
<style type="text/css">
	.st0{fill:#7AD09E;}
	.st1{fill:#6DC391;}
	.st2{fill:#5FBF87;}
	.st3{fill:#66C58E;}
	.st4{fill:#63C38B;}
	.st5{fill:#6FCC96;}
	.st6{fill:#60C088;}
	.st7{fill:#76D19C;}
	.st8{fill:#75D19B;}
	.st9{fill:#82D5A5;}
	.st10{fill:#74D09B;}
	.st11{fill:#65C58D;}
	.st12{fill:#66C58D;}
	.st13{fill:#68BF8C;}
	.st14{fill:#5BBB83;}
	.st15{fill:#59B981;}
	.st16{fill:#6FC593;}
	.st17{fill:#61C089;}
</style>
<g id="XMLID_1_">
	<path id="XMLID_7_" class="st0" d="M251,293.9l-43.1,138.6l0,0L251,293.9L251,293.9L251,293.9L251,293.9 M129.1,67.5l81.5,107.8
		h81.1L251,293.9l0,0l0,0l40.7-118.6l0,0l-81.1,0L129.1,67.5 M129.1,67.5l-20.8,101.3L129.1,67.5 M372.7,67.5l18.9,101.3l-57.5,56.2
		l39,69l-79.1,138.6l-13.5-43.3l13.5,43.3h-86.1h0h86.1l79.1-138.6l-39-69l57.5-56.2L372.7,67.5"/>
	<polyline id="XMLID_8_" class="st1" points="167.9,224.9 129.2,293.9 167.9,224.9 167.9,224.9 	"/>
	<path id="XMLID_11_" class="st2" d="M251,293.9L251,293.9L251,293.9L251,293.9 M167.9,224.9l-38.7,69H251L167.9,224.9L167.9,224.9"
		/>
	<polyline id="XMLID_12_" class="st3" points="210.6,175.3 210.6,175.3 167.9,224.9 251,293.9 251,293.9 251,293.9 251,293.9 
		251,293.9 251,293.9 251,293.9 210.6,175.3 	"/>
	<path id="XMLID_15_" class="st4" d="M251,293.9L251,293.9L251,293.9L251,293.9 M167.9,224.9L167.9,224.9l83.1,69l0,0L167.9,224.9"
		/>
	<polyline id="XMLID_16_" class="st5" points="334.1,224.9 334.1,224.9 251,293.9 373.1,293.9 334.1,224.9 	"/>
	<polyline id="XMLID_17_" class="st6" points="251,293.9 207.9,432.5 207.9,432.5 294.1,432.5 280.6,389.2 251,293.9 	"/>
	<polyline id="XMLID_18_" class="st7" points="291.7,175.3 251,293.9 251,293.9 334.1,224.9 291.7,175.3 	"/>
	<polyline id="XMLID_19_" class="st8" points="334.1,224.9 251,293.9 251,293.9 334.1,224.9 	"/>
	<polyline id="XMLID_20_" class="st9" points="372.7,67.5 291.7,175.3 291.7,175.3 372.7,67.5 	"/>
	<polyline id="XMLID_21_" class="st10" points="372.7,67.5 291.7,175.3 291.7,175.3 291.7,175.3 334.1,224.9 334.1,224.9 
		391.6,168.8 372.7,67.5 	"/>
	<polyline id="XMLID_22_" class="st10" points="291.7,175.3 291.7,175.3 334.1,224.9 334.1,224.9 291.7,175.3 	"/>
	<polyline id="XMLID_23_" class="st3" points="373.1,293.9 251,293.9 251,293.9 251,293.9 251,293.9 251,293.9 251,293.9 251,293.9 
		251,293.9 280.6,389.2 294.1,432.5 373.1,293.9 	"/>
	<path id="XMLID_26_" class="st11" d="M251,293.9L251,293.9L251,293.9 M373.1,293.9H251l0,0L373.1,293.9"/>
	<path id="XMLID_29_" class="st12" d="M251,293.9L251,293.9L251,293.9 M251,293.9L251,293.9L251,293.9L251,293.9"/>
	<polyline id="XMLID_30_" class="st12" points="251,293.9 251,293.9 251,293.9 251,293.9 251,293.9 251,293.9 	"/>
	<polyline id="XMLID_31_" class="st13" points="129.2,293.9 207.9,432.5 207.9,432.5 129.2,293.9 	"/>
	<polyline id="XMLID_32_" class="st14" points="129.2,293.9 129.2,293.9 207.9,432.5 251,293.9 129.2,293.9 	"/>
	<polyline id="XMLID_33_" class="st15" points="251,293.9 129.2,293.9 251,293.9 251,293.9 251,293.9 	"/>
	<polyline id="XMLID_34_" class="st16" points="108.4,168.8 108.4,168.8 167.9,224.9 167.9,224.9 167.9,224.9 108.4,168.8 	"/>
	<polyline id="XMLID_35_" class="st17" points="129.1,67.5 129.1,67.5 108.4,168.8 167.9,224.9 167.9,224.9 210.6,175.3 129.1,67.5 
			"/>
	<polyline id="XMLID_36_" class="st6" points="167.9,224.9 167.9,224.9 167.9,224.9 167.9,224.9 167.9,224.9 	"/>
	<polyline id="XMLID_37_" class="st2" points="167.9,224.9 167.9,224.9 167.9,224.9 167.9,224.9 167.9,224.9 	"/>
	<polyline id="XMLID_38_" class="st6" points="210.6,175.3 167.9,224.9 167.9,224.9 210.6,175.3 	"/>
	<polyline id="XMLID_39_" class="st2" points="167.9,224.9 167.9,224.9 167.9,224.9 167.9,224.9 	"/>
	<polyline id="XMLID_40_" class="st5" points="291.7,175.3 210.6,175.3 251,293.9 291.7,175.3 	"/>
</g>
</svg>
